<?xml version="1.0" encoding="utf-8"?>
<!-- Generator: Adobe Illustrator 17.0.2, SVG Export Plug-In . SVG Version: 6.00 Build 0)  -->
<!DOCTYPE svg PUBLIC "-//W3C//DTD SVG 1.1//EN" "http://www.w3.org/Graphics/SVG/1.1/DTD/svg11.dtd">
<svg version="1.1" id="Layer_1" xmlns="http://www.w3.org/2000/svg" xmlns:xlink="http://www.w3.org/1999/xlink" x="0px" y="0px"
	 width="557.588px" height="268.98px" viewBox="0 0 557.588 268.98" enable-background="new 0 0 557.588 268.98"
	 xml:space="preserve">
<path fill="#FFFFFF" d="M503.729,32.946C477.825,15.136,448.667,7.033,396.44,7.033c-8.578,0-18.718,0.297-29.254,0.887
	c-0.848-0.274-1.861-0.433-3.115-0.433h-66.81c-4.61,0-8.064-1.153-8.064,4.029c0,7.488,10.941,7.488,16.13,7.488
	c31.099,0,25.347,21.889,25.347,46.081v110.006c0,16.133,2.292,29.374-9.799,42.637c-16.128,17.842-36.857,25.908-61.63,25.908
	c-21.309,0-46.076-7.487-57.597-26.493c-10.36-16.702-10.36-45.506-10.36-64.518V51.703c0.246-13.622,0.647-26.531-11.59-36.736
	C166.456,2.883,145.138,0,127.291,0c-36.87,0-76.032,15.55-103.1,39.74C13.246,48.956,0,65.659,0,80.635
	c0,5.763,2.883,6.906,7.485,6.906c6.909,0,19.004-4.596,24.765-7.488c9.217-4.024,12.095-12.086,16.125-20.73
	c13.248-29.373,31.104-48.384,66.24-48.384c35.711,0,36.869,23.612,36.869,51.839v25.345c0,21.883-0.585,22.461-21.311,32.251
	l-44.358,20.738c-31.678,15.549-85.242,39.742-85.242,80.633c0,28.799,27.074,45.498,54.143,45.498
	c37.176,0,67.379-24.086,82.614-36.521c5.298-4.32,8.252-7.68,8.673-8.732c0,0,1.563-3.41-2.097-5.512
	c-3.663-2.1-6.827,1.249-6.827,1.249c-13.818,13.812-33.407,23.023-53.56,23.023c-21.31,0-39.743-11.512-39.743-33.976
	c0-27.648,22.457-42.621,44.922-54.15l52.419-26.49c1.726-0.579,4.602-2.306,6.329-2.306c2.684,0,3.73,3.003,4.095,6.434v8.324
	c-0.034,0.608-0.056,1.085-0.056,1.372v34.557l0.205,0.404c0.598,20.922,3.526,41.491,17.132,58.922
	c16.708,21.891,39.745,33.402,67.972,33.402c52.405,0,79.48-40.316,88.111-40.316c7.497,0,4.616,20.736,4.616,23.617v13.822
	c0,2.877,0,4.612,2.881,4.612c1.719,0,5.295-2.694,6.331-3.454c10.772-7.904,11.425-11.498,27.946-14.852
	c4.922-0.99,9.039,0.072,12.896-1.282c4.747-1.661,8.524-5.722,6.124-6.599c-18.978-6.955-15.291-29.104-15.291-51.569V40.014
	c1.088-15.583,6.072-22.455,26.439-22.455c85.834,0,112.955,72.47,112.955,118.635c0,54.941-34.35,99.104-77.647,111.256l-4.4,0.899
	c-8.104,0.401-14.18,0.819-14.18,6.88c0,5.67,5.266,5.67,8.098,5.67l0.273-0.01c105.672,0,135.642-83.804,135.642-127.124
	C557.588,94.488,536.93,55.624,503.729,32.946"/>
</svg>
